<svg width="28" height="28" viewBox="0 0 28 28" fill="none" xmlns="http://www.w3.org/2000/svg">
<path fill-rule="evenodd" clip-rule="evenodd" d="M13.05 2.425C7.18145 2.425 2.42505 7.18251 2.42505 13.05C2.42505 18.9188 7.1813 23.675 13.05 23.675C18.9188 23.675 23.675 18.9187 23.675 13.05C23.675 7.18251 18.9186 2.425 13.05 2.425ZM13.05 0.300001C6.00769 0.300001 0.300048 6.00906 0.300048 13.05C0.300049 20.0924 6.00769 25.8 13.05 25.8C20.0924 25.8 25.8 20.0924 25.8 13.05C25.8 6.00906 20.0924 0.3 13.05 0.300001Z" fill="#83838C"/>
<path fill-rule="evenodd" clip-rule="evenodd" d="M22.9668 25.3272C22.9668 26.6307 24.0245 27.6889 25.3273 27.6889C26.6325 27.6889 27.689 26.6307 27.689 25.3272C27.689 24.0232 26.632 22.9667 25.3273 22.9667C24.025 22.9667 22.9668 24.0232 22.9668 25.3272Z" fill="#83838C"/>
<rect x="8.3653" y="15.2568" width="9.74628" height="3.50444" rx="1.75222" transform="rotate(-45 8.3653 15.2568)" fill="white"/>
</svg>
