<svg width="26" height="26" viewBox="0 0 26 26" fill="none" xmlns="http://www.w3.org/2000/svg">
<path fill-rule="evenodd" clip-rule="evenodd" d="M12.9296 1.44444H13.0702C15.5151 1.44442 17.4448 1.44441 18.9535 1.64725C20.5033 1.85562 21.7474 2.29328 22.727 3.27288C23.7066 4.25247 24.1443 5.49654 24.3526 7.04642C24.5555 8.55508 24.5555 10.4847 24.5554 12.9296V12.9297V13.0703V13.0704C24.5555 15.5152 24.5555 17.4449 24.3526 18.9536C24.1443 20.5035 23.7066 21.7475 22.727 22.7271C21.7474 23.7067 20.5033 24.1444 18.9535 24.3527C17.4448 24.5556 15.5152 24.5556 13.0703 24.5556H13.0702H12.9296H12.9295C10.4847 24.5556 8.55499 24.5556 7.04631 24.3527C5.49643 24.1444 4.25237 23.7067 3.27277 22.7271C2.29317 21.7475 1.85552 20.5035 1.64714 18.9536C1.4443 17.4449 1.44432 15.5152 1.44434 13.0703V12.9297C1.44432 10.4848 1.4443 8.55511 1.64714 7.04642C1.85552 5.49654 2.29317 4.25247 3.27277 3.27288C4.25237 2.29328 5.49643 1.85562 7.04631 1.64725C8.555 1.44441 10.4847 1.44442 12.9296 1.44444ZM7.29408 3.49018C5.95041 3.67083 5.16416 4.01124 4.58764 4.58775C4.01113 5.16426 3.67073 5.95051 3.49007 7.29419C3.30583 8.66461 3.30385 10.4692 3.30385 13C3.30385 15.5308 3.30583 17.3354 3.49007 18.7058C3.67073 20.0495 4.01113 20.8357 4.58764 21.4122C5.16416 21.9888 5.95041 22.3292 7.29408 22.5098C8.66451 22.6941 10.4691 22.696 12.9999 22.696C15.5307 22.696 17.3353 22.6941 18.7057 22.5098C20.0494 22.3292 20.8356 21.9888 21.4121 21.4122C21.9887 20.8357 22.3291 20.0495 22.5097 18.7058C22.694 17.3354 22.6959 15.5308 22.6959 13C22.6959 10.4692 22.694 8.66461 22.5097 7.29419C22.3291 5.95051 21.9887 5.16426 21.4121 4.58775C20.8356 4.01124 20.0494 3.67083 18.7057 3.49018C17.3353 3.30593 15.5307 3.30396 12.9999 3.30396C10.4691 3.30396 8.66451 3.30593 7.29408 3.49018ZM17.5691 6.83713C17.5691 6.01554 18.2351 5.34952 19.0567 5.34952C19.8783 5.34952 20.5443 6.01554 20.5443 6.83713C20.5443 7.65871 19.8783 8.32474 19.0567 8.32474C18.2351 8.32474 17.5691 7.65871 17.5691 6.83713ZM12.7342 7.55427C9.87334 7.55427 7.55414 9.87347 7.55414 12.7343V13.2656C7.55414 16.1265 9.87334 18.4457 12.7342 18.4457H13.2655C16.1264 18.4457 18.4456 16.1265 18.4456 13.2656V12.7343C18.4456 9.87347 16.1264 7.55427 13.2655 7.55427H12.7342ZM9.41366 12.7343C9.41366 10.9004 10.9003 9.41378 12.7342 9.41378H13.2655C15.0994 9.41378 16.5861 10.9004 16.5861 12.7343V13.2656C16.5861 15.0995 15.0994 16.5862 13.2655 16.5862H12.7342C10.9003 16.5862 9.41366 15.0995 9.41366 13.2656V12.7343Z" fill="white"/>
</svg>
