<svg width="30" height="31" viewBox="0 0 30 31" fill="none" xmlns="http://www.w3.org/2000/svg">
<path fill-rule="evenodd" clip-rule="evenodd" d="M7.26017 23.032C7.68893 23.4608 7.68893 24.1559 7.26017 24.5847L3.3183 28.5266C2.88954 28.9553 2.19437 28.9553 1.76561 28.5266C1.33685 28.0978 1.33685 27.4027 1.76561 26.9739L5.70748 23.032C6.13624 22.6033 6.83141 22.6033 7.26017 23.032Z" fill="white"/>
<path fill-rule="evenodd" clip-rule="evenodd" d="M5.2891 17.119C5.71786 17.5478 5.71786 18.2429 5.2891 18.6717L3.31816 20.6426C2.8894 21.0714 2.19424 21.0714 1.76548 20.6426C1.33671 20.2139 1.33671 19.5187 1.76548 19.0899L3.73641 17.119C4.16518 16.6902 4.86034 16.6902 5.2891 17.119Z" fill="#83838C"/>
<path fill-rule="evenodd" clip-rule="evenodd" d="M13.1731 25.0029C13.6019 25.4317 13.6019 26.1268 13.1731 26.5556L10.2167 29.512C9.78797 29.9408 9.0928 29.9408 8.66404 29.512C8.23528 29.0832 8.23528 28.3881 8.66404 27.9593L11.6204 25.0029C12.0492 24.5741 12.7444 24.5741 13.1731 25.0029Z" fill="#83838C"/>
<path fill-rule="evenodd" clip-rule="evenodd" d="M7.6011 11.2338C7.68414 10.4558 8.38214 9.89245 9.16012 9.97549C11.9152 10.2696 14.5941 11.4742 16.7058 13.586C18.8176 15.6977 20.0222 18.3766 20.3163 21.1317C20.3994 21.9097 19.836 22.6077 19.058 22.6907C18.28 22.7738 17.582 22.2104 17.499 21.4324C17.2712 19.2983 16.3402 17.2272 14.7024 15.5894C13.0646 13.9516 10.9935 13.0206 8.85941 12.7928C8.08142 12.7098 7.51806 12.0118 7.6011 11.2338Z" fill="white"/>
<path fill-rule="evenodd" clip-rule="evenodd" d="M29.0094 12.7395C28.9264 13.5175 28.2284 14.0808 27.4504 13.9978C24.6953 13.7037 22.0164 12.4991 19.9047 10.3873C17.7929 8.27559 16.5883 5.5967 16.2942 2.84161C16.2112 2.06362 16.7745 1.36563 17.5525 1.28259C18.3305 1.19955 19.0285 1.76291 19.1115 2.54089C19.3393 4.675 20.2704 6.74607 21.9082 8.38386C23.5459 10.0217 25.617 10.9527 27.7511 11.1805C28.5291 11.2635 29.0925 11.9615 29.0094 12.7395Z" fill="white"/>
<path fill-rule="evenodd" clip-rule="evenodd" d="M18.3091 21.007C23.2955 21.007 27.3334 16.9691 27.3334 11.9827C27.3334 6.99631 23.2955 2.9584 18.3091 2.9584C13.3227 2.9584 9.28479 6.99631 9.28479 11.9827C9.28479 16.9691 13.3227 21.007 18.3091 21.007ZM18.3091 23.132C24.4691 23.132 29.4584 18.1427 29.4584 11.9827C29.4584 5.82271 24.4691 0.833398 18.3091 0.833398C12.1491 0.833399 7.15979 5.82271 7.15979 11.9827C7.15979 18.1427 12.1491 23.132 18.3091 23.132Z" fill="#83838C"/>
</svg>
