<svg width="22" height="22" viewBox="0 0 22 22" fill="none" xmlns="http://www.w3.org/2000/svg">
<path d="M13.6294 1.25909C15.5157 1.47496 17.2727 2.32556 18.612 3.67136C19.9513 5.01717 20.7933 6.7782 21.0001 8.66557" stroke="white" stroke-width="1.25" stroke-linecap="round" stroke-linejoin="round"/>
<path d="M13.6294 4.98956C14.5385 5.16811 15.3734 5.61467 16.0268 6.27148C16.6802 6.92829 17.1222 7.7654 17.296 8.67541" stroke="white" stroke-width="1.25" stroke-linecap="round" stroke-linejoin="round"/>
<path d="M8.25251 9.55981C9.2006 11.3021 10.6265 12.7374 12.3624 13.6971C13.076 14.0852 13.9118 14.183 14.6957 13.9697L16.1957 13.5671C16.4027 13.51 16.6193 13.496 16.832 13.5258C17.0446 13.5556 17.249 13.6286 17.4323 13.7404C18.4773 14.3881 19.4524 15.1423 20.3422 15.9905L20.4022 16.0495C20.6592 16.3119 20.8281 16.6478 20.8856 17.0104C20.9306 18.3954 18.8098 20.2496 18.3998 20.4804C17.424 21.1879 16.1582 21.172 14.6024 20.4495C10.2858 18.647 3.3776 11.828 1.54681 7.31559C0.84682 5.76645 0.802637 4.47147 1.50846 3.49649C1.83678 2.94483 3.66763 0.934955 4.9701 1.00162C5.35775 1.06334 5.71387 1.25215 5.98255 1.53831C6.82922 2.4393 7.58014 3.42566 8.22332 4.48157C8.3324 4.66469 8.40341 4.86789 8.43205 5.0791C8.46069 5.2903 8.44642 5.50505 8.39004 5.7106L7.98172 7.23807C7.77186 8.01811 7.86874 8.84902 8.25251 9.55981V9.55981Z" stroke="white" stroke-width="1.25" stroke-linecap="round" stroke-linejoin="round"/>
</svg>
