<svg width="34" height="34" viewBox="0 0 34 34" fill="none" xmlns="http://www.w3.org/2000/svg">
<path fill-rule="evenodd" clip-rule="evenodd" d="M16.9411 1.77084H17.0589C18.9986 1.77082 20.5356 1.77081 21.7629 1.89567C23.0204 2.02359 24.0702 2.29131 24.9885 2.90491C25.7233 3.39586 26.3541 4.02672 26.8451 4.76148C27.4587 5.67979 27.7264 6.72959 27.8543 7.98709C27.9792 9.21443 27.9792 10.7514 27.9791 12.6911V24.0833C27.9791 27.0173 25.6007 29.3958 22.6666 29.3958V27.2708C24.4271 27.2708 25.8541 25.8437 25.8541 24.0833V12.75C25.8541 10.7382 25.8529 9.30938 25.7402 8.20215C25.6294 7.11268 25.4196 6.45302 25.0782 5.94207C24.7423 5.43934 24.3106 5.00769 23.8079 4.67178C23.297 4.33037 22.6373 4.12059 21.5478 4.00976C20.4406 3.89712 19.0117 3.89584 17 3.89584C14.9882 3.89584 13.5594 3.89712 12.4521 4.00976C11.3627 4.12059 10.703 4.33037 10.192 4.67178C9.68931 5.00769 9.25767 5.43934 8.92176 5.94207C8.58035 6.45302 8.37056 7.11268 8.25973 8.20215C8.1471 9.30938 8.14581 10.7382 8.14581 12.75V24.0833C8.14581 25.8437 9.57291 27.2708 11.3333 27.2708V29.3958C8.3993 29.3958 6.02081 27.0173 6.02081 24.0833L6.02081 12.6911C6.0208 10.7514 6.02079 9.21443 6.14564 7.98709C6.27357 6.72959 6.54129 5.67979 7.15488 4.76148C7.64583 4.02672 8.2767 3.39586 9.01146 2.90491C9.92977 2.29131 10.9796 2.02359 12.2371 1.89567C13.4644 1.77081 15.0014 1.77082 16.9411 1.77084Z" fill="#83838C"/>
<path d="M13.4583 9.20833C13.4583 8.42593 14.0926 7.79166 14.875 7.79166H19.125C19.9074 7.79166 20.5416 8.42593 20.5416 9.20833C20.5416 9.99073 19.9074 10.625 19.125 10.625H14.875C14.0926 10.625 13.4583 9.99073 13.4583 9.20833Z" fill="white"/>
<path d="M10.2708 28.3333C10.2708 27.7465 10.7465 27.2708 11.3333 27.2708C11.9201 27.2708 12.3958 27.7465 12.3958 28.3333C12.3958 28.9201 11.9201 29.3958 11.3333 29.3958C10.7465 29.3958 10.2708 28.9201 10.2708 28.3333Z" fill="#83838C"/>
<path d="M21.6042 28.3333C21.6042 27.7465 22.0799 27.2708 22.6667 27.2708C23.2535 27.2708 23.7292 27.7465 23.7292 28.3333C23.7292 28.9201 23.2535 29.3958 22.6667 29.3958C22.0799 29.3958 21.6042 28.9201 21.6042 28.3333Z" fill="#83838C"/>
<path fill-rule="evenodd" clip-rule="evenodd" d="M17 16.4974L22.76 22.2573L21.2574 23.76L17 19.5026L12.7426 23.76L11.24 22.2573L17 16.4974Z" fill="white"/>
<path fill-rule="evenodd" clip-rule="evenodd" d="M17 17.9375C17.5868 17.9375 18.0625 18.4132 18.0625 19L18.0625 31.1667C18.0625 31.7535 17.5868 32.2292 17 32.2292C16.4132 32.2292 15.9375 31.7535 15.9375 31.1667L15.9375 19C15.9375 18.4132 16.4132 17.9375 17 17.9375Z" fill="white"/>
</svg>
