<svg width="26" height="26" viewBox="0 0 26 26" fill="none" xmlns="http://www.w3.org/2000/svg">
<path fill-rule="evenodd" clip-rule="evenodd" d="M22.6077 4.86351C23.6595 5.149 24.4888 5.98508 24.7719 7.04547C25.2978 8.98272 25.2776 13.0204 25.2776 13.0204C25.2776 13.0204 25.2776 17.0376 24.7719 18.9749C24.4888 20.0353 23.6595 20.8714 22.6077 21.1568C20.6861 21.6666 12.9999 21.6666 12.9999 21.6666C12.9999 21.6666 5.3339 21.6666 3.39212 21.1364C2.34032 20.851 1.51102 20.0149 1.22784 18.9545C0.722168 17.0376 0.722168 13 0.722168 13C0.722168 13 0.722168 8.98272 1.22784 7.04547C1.51102 5.98508 2.36055 5.12861 3.39212 4.84312C5.31367 4.33331 12.9999 4.33331 12.9999 4.33331C12.9999 4.33331 20.6861 4.33331 22.6077 4.86351ZM16.9443 13L10.5526 16.7114V9.28867L16.9443 13Z" fill="white"/>
</svg>
